<?xml version="1.0" encoding="UTF-8"?>
<svg id="Layer_2" data-name="Layer 2" xmlns="http://www.w3.org/2000/svg" viewBox="0 0 1774.19 143.45">
  <g>
    <path d="M122.79,115.01h-26.86v-33.64h-51.89v33.64h-27.12V27.78h27.12v30.9h51.89v-30.9h26.86v87.23Z" style="fill: #fff; stroke: #fff; stroke-miterlimit: 10; stroke-width: 2.83px;"/>
    <path d="M337.16,115.01h-26.99V27.78h26.99v87.23Z" style="fill: #fff; stroke: #fff; stroke-miterlimit: 10; stroke-width: 2.83px;"/>
    <path d="M437.43,92.71h-45.63v22.3h-26.86v-44.59h75.1c8.34,0,13.17-4.04,13.17-10.04s-4.83-9.91-13.17-9.91h-75.1l17.86-22.69h54.76c26.99,0,42.77,13.3,42.77,32.73s-15.78,32.21-42.9,32.21h0Z" style="fill: #fff; stroke: #fff; stroke-miterlimit: 10; stroke-width: 2.83px;"/>
    <path d="M257.97,115.01l-40.74-57.89-40.94,57.89h-31.94l55.94-78.88c3.65-5.08,9-9.78,17.47-9.78s13.43,4.3,17.21,9.78l54.5,78.88h-31.5Z" style="fill: #fff; stroke: #fff; stroke-miterlimit: 10; stroke-width: 2.83px;"/>
  </g>
  <g>
    <path d="M531.41,27.39h-9.26v88.79h9.26v15.65h-25.03V11.61h25.03v15.78Z" style="fill: #85c6eb; stroke: #85c6eb; stroke-miterlimit: 10; stroke-width: 2.83px;"/>
    <path d="M662.84,115.01h-26.86v-33.64h-51.89v33.64h-27.12V27.78h27.12v30.9h51.89v-30.9h26.86v87.23Z" style="fill: #fff; stroke: #fff; stroke-miterlimit: 10; stroke-width: 2.83px;"/>
    <path d="M702.49,91.15c8.21,0,14.73,4.69,14.73,12.78s-6.52,12.52-14.73,12.52-14.6-4.56-14.6-12.52,6.52-12.78,14.6-12.78Z" style="fill: #ff671d; stroke: #ff671d; stroke-miterlimit: 10; stroke-width: 2.83px;"/>
    <path d="M847.87,27.78l-51.76,58.41v28.82h-27.12v-28.95l-53.2-58.28h34.68l20.86,24.25c2.74,3.13,10.04,11.08,11.87,13.69,1.69-2.48,4.69-6.26,10.95-13.82l19.82-24.12h33.9Z" style="fill: #fff; stroke: #fff; stroke-miterlimit: 10; stroke-width: 2.83px;"/>
    <path d="M860.27,91.15c8.21,0,14.73,4.69,14.73,12.78s-6.52,12.52-14.73,12.52-14.6-4.56-14.6-12.52,6.52-12.78,14.6-12.78Z" style="fill: #ff671d; stroke: #ff671d; stroke-miterlimit: 10; stroke-width: 2.83px;"/>
    <path d="M972.14,92.71h-45.63v22.3h-26.86v-44.59h75.1c8.34,0,13.17-4.04,13.17-10.04s-4.83-9.91-13.17-9.91h-75.1l17.86-22.69h54.76c26.99,0,42.77,13.3,42.77,32.73s-15.78,32.21-42.9,32.21h0Z" style="fill: #fff; stroke: #fff; stroke-miterlimit: 10; stroke-width: 2.83px;"/>
    <path d="M1041.77,91.15c8.21,0,14.73,4.69,14.73,12.78s-6.52,12.52-14.73,12.52-14.6-4.56-14.6-12.52,6.52-12.78,14.6-12.78Z" style="fill: #ff671d; stroke: #ff671d; stroke-miterlimit: 10; stroke-width: 2.83px;"/>
    <path d="M1182.72,92.58l-17.34,22.43h-83.97V27.78h101.05l-17.47,22.69h-56.46v10.43h69.1l-15.52,19.82h-53.59v11.87h74.2Z" style="fill: #fff; stroke: #fff; stroke-miterlimit: 10; stroke-width: 2.83px;"/>
    <path d="M1215.06,91.15c8.21,0,14.73,4.69,14.73,12.78s-6.52,12.52-14.73,12.52-14.6-4.56-14.6-12.52,6.52-12.78,14.6-12.78Z" style="fill: #ff671d; stroke: #ff671d; stroke-miterlimit: 10; stroke-width: 2.83px;"/>
    <path d="M1277.52,131.83h-24.9v-15.65h9.26V27.39h-9.26v-15.78h24.9v120.22Z" style="fill: #85c6eb; stroke: #85c6eb; stroke-miterlimit: 10; stroke-width: 2.83px;"/>
  </g>
</svg>