<?xml version="1.0" encoding="UTF-8"?>
<svg id="Layer_1" xmlns="http://www.w3.org/2000/svg" version="1.1" viewBox="0 0 1200 630">
  <!-- Generator: Adobe Illustrator 29.3.1, SVG Export Plug-In . SVG Version: 2.1.0 Build 151)  -->
  <rect width="1200" height="630" fill="#85c6eb"/>
  <g>
    <rect y="335" width="1200" height="29.5" fill="#ff671d"/>
    <g>
      <path d="M102.4,317.6v-59.4h-36.6l7.5-9.5h79.7l-7.3,9.5h-32.1v59.4h-11.2Z" fill="#004988"/>
      <path d="M223,260.2l-24.5,54.2c-1.1,2.4-3.3,4.1-6.4,4.1s-5.3-1.9-6.4-5.3l-22.5-64.6h11.1l19.4,55.4,23-52c1.6-3.7,4-4.3,6.5-4.3s5,.6,6.7,4.3l23,52,19.3-55.4h10.9l-22.6,64.6c-1.2,3.4-3.5,5.3-6.5,5.3s-5.2-1.6-6.3-4.1l-24.7-54.2Z" fill="#004988"/>
      <path d="M299.8,317.6v-68.9h11.1v68.9h-11.1Z" fill="#004988"/>
      <path d="M342.4,263.2v54.4h-10.1v-62.8c0-4.9,2.9-7,6.2-7s3.1.4,4.8,2.2l55.3,52.9v-54.2h10.2v62.5c0,4.9-3,7-6.3,7s-3-.3-4.7-2.1l-55.4-52.9Z" fill="#004988"/>
      <path d="M487,288.4v29.3h-11.1v-68.9h71.3l-7.3,9.5h-52.8v21.3h56.3l-6.8,8.9h-49.5Z" fill="#004988"/>
      <path d="M569.8,317.6l6.8-9.4h48l-31.7-47.8-38.6,57.2h-13.2l44.7-65.6c1.4-2.2,3.9-4.2,7.3-4.2s5.8,1.9,7.3,4.2l44.1,65.6h-74.7Z" fill="#004988"/>
      <path d="M688,317.6c-22.9,0-39.7-15.1-39.7-35.1s16.8-33.8,39.7-33.8h43.6l-7.3,9.5h-36.3c-13.5,0-28.5,7.6-28.5,24.8s15.1,25.2,34.6,25.2h37.5l-7.3,9.4h-36.3Z" fill="#004988"/>
      <path d="M777.8,317.6v-59.4h-36.6l7.5-9.5h79.7l-7.3,9.5h-32.1v59.4h-11.2Z" fill="#004988"/>
      <path d="M878.5,318.8c-30.8,0-46.3-11-46.3-35.6s15.5-35.5,46.3-35.5,46.3,10.9,46.3,35.5-15.5,35.6-46.3,35.6ZM878.5,257c-24.4,0-35.1,6.8-35.1,26.2s10.7,26.3,35.1,26.3,35.1-6.9,35.1-26.3-10.7-26.2-35.1-26.2Z" fill="#004988"/>
      <path d="M1019.2,317.6l-24.6-22.8h-39.6v22.8h-11.1v-31.7h49.3c12.9,0,24.5-3.7,24.5-13.6s-10.2-14.1-24.5-14.1h-49.5l7.3-9.5h46.4c16.1,0,31.8,6.2,31.8,23s-9.1,19.9-23.1,21.1l28.2,24.8h-15.1Z" fill="#004988"/>
      <path d="M1079.6,317.6v-25.5l-43.6-43.4h14.4l34.9,34.9,34.2-34.9h14.1l-43,43.4v25.5h-11.1Z" fill="#004988"/>
    </g>
    <g>
      <path d="M895.3,340.5v1.7h-8.5v6.6h6.7v1.7h-6.7v8h-1.7v-18.2h10.2Z" fill="#fff"/>
      <path d="M898.7,358.7l7-18.2h1.8l7,18.2h-1.9l-1.8-4.8h-8.4l-1.8,4.8h-1.9ZM906.6,343l-3.6,9.3h7.2l-3.6-9.3Z" fill="#fff"/>
      <path d="M921.2,353.5c0,1.8,1.6,3.7,4.1,3.7s4.2-1.6,4.5-3c.3-2.2-1.4-3.3-3.5-3.8l-2.5-.6c-3.8-.8-4.3-3-4.3-4.6,0-3,2.8-5,5.7-5s5.7,2,5.7,5.2h-1.7c0-2.1-1.7-3.5-4-3.5s-4,1.3-4,3.2.3,2.3,2.9,2.9l2.5.6c2.9.6,5.3,2.4,4.8,5.8-.4,2.1-2.5,4.4-6.2,4.4s-5.9-2.8-5.9-5.5h1.7Z" fill="#fff"/>
      <path d="M950.1,340.5v1.7h-5.8v16.4h-1.7v-16.4h-5.8v-1.7h13.4Z" fill="#fff"/>
      <path d="M976.3,340.5v1.7h-8.5v6.6h6.7v1.7h-6.7v8h-1.7v-18.2h10.2Z" fill="#fff"/>
      <path d="M990.6,340.3c5.2,0,9.1,4.2,9.1,9.3s-4,9.3-9.1,9.3-9.1-4.1-9.1-9.3,4-9.3,9.1-9.3ZM990.6,357.2c4.2,0,7.4-3.4,7.4-7.6s-3.2-7.6-7.4-7.6-7.4,3.4-7.4,7.6,3.2,7.6,7.4,7.6Z" fill="#fff"/>
      <path d="M1019,358.7h-2.1l-5-7.1h-3.1v7.1h-1.8v-18.2h6.7c3.7,0,5,2.7,5,5.6s-1.3,5.4-4.8,5.5l5,7.1ZM1008.8,342.3v7.6h4.8c2.6,0,3.4-1.8,3.4-3.8s-.9-3.8-3.3-3.8h-5Z" fill="#fff"/>
      <path d="M1046.7,340.5l-6.1,18.2h-1.7l-3.6-12.2-3.6,12.2h-1.7l-6.1-18.2h1.8l5.1,15.4,3.8-13h1.3l3.8,13,5.1-15.4h1.8Z" fill="#fff"/>
      <path d="M1050.1,358.7l7-18.2h1.8l7,18.2h-1.9l-1.8-4.8h-8.4l-1.8,4.8h-1.9ZM1058,343l-3.6,9.3h7.2l-3.6-9.3Z" fill="#fff"/>
      <path d="M1084.2,358.7h-2.1l-5-7.1h-3.1v7.1h-1.8v-18.2h6.7c3.7,0,5,2.7,5,5.6s-1.3,5.4-4.8,5.5l5,7.1ZM1074,342.3v7.6h4.8c2.6,0,3.4-1.8,3.4-3.8s-.9-3.8-3.3-3.8h-5Z" fill="#fff"/>
      <path d="M1091.4,358.7v-18.2h6.8c5.2,0,8,4,8,9.1s-2.9,9-8,9h-6.8ZM1093.2,357h5.1c4.2,0,6.3-3.1,6.3-7.3s-2.1-7.4-6.3-7.4h-5.1v14.7Z" fill="#fff"/>
    </g>
    <g>
      <path d="M949.8,373.4v1.7h-5.8v16.4h-1.7v-16.4h-5.8v-1.7h13.4Z" fill="#57677f"/>
      <path d="M960.9,373.2c5.2,0,9.1,4.2,9.1,9.3s-4,9.3-9.1,9.3-9.1-4.1-9.1-9.3,4-9.3,9.1-9.3ZM960.9,390.1c4.2,0,7.4-3.4,7.4-7.6s-3.2-7.6-7.4-7.6-7.4,3.4-7.4,7.6,3.2,7.6,7.4,7.6Z" fill="#57677f"/>
      <path d="M993.8,373.4v1.7h-5.8v16.4h-1.7v-16.4h-5.8v-1.7h13.4Z" fill="#57677f"/>
      <path d="M1011.2,391.5h-1.7v-8.2h-10v8.2h-1.7v-18.2h1.7v8.3h10v-8.3h1.7v18.2Z" fill="#57677f"/>
      <path d="M1027.3,373.4v1.7h-8.6v6.6h7.5v1.7h-7.5v6.3h8.9v1.7h-10.6v-18.2h10.4Z" fill="#57677f"/>
      <path d="M1050,373.4v1.7h-8.5v6.6h6.7v1.7h-6.7v8h-1.7v-18.2h10.2Z" fill="#57677f"/>
      <path d="M1065,385.4v-12h1.7v12c0,3.9-2.9,6.4-6.4,6.4s-6.4-2.5-6.4-6.4v-12h1.7v12c0,2.8,2.1,4.7,4.7,4.7s4.7-1.8,4.7-4.7Z" fill="#57677f"/>
      <path d="M1083.9,373.4v1.7h-5.8v16.4h-1.7v-16.4h-5.8v-1.7h13.4Z" fill="#57677f"/>
      <path d="M1098.8,385.4v-12h1.7v12c0,3.9-2.9,6.4-6.4,6.4s-6.4-2.5-6.4-6.4v-12h1.7v12c0,2.8,2.1,4.7,4.7,4.7s4.7-1.8,4.7-4.7Z" fill="#57677f"/>
      <path d="M1118.2,391.5h-2.1l-5-7.1h-3.1v7.1h-1.8v-18.2h6.7c3.7,0,5,2.7,5,5.6s-1.3,5.4-4.8,5.5l5,7.1ZM1108,375.1v7.6h4.8c2.6,0,3.4-1.8,3.4-3.8s-.9-3.8-3.3-3.8h-5Z" fill="#57677f"/>
      <path d="M1133.1,373.4v1.7h-8.6v6.6h7.5v1.7h-7.5v6.3h8.9v1.7h-10.6v-18.2h10.4Z" fill="#57677f"/>
    </g>
    <rect y="328.4" width="1200" height="6.7" fill="#57677f"/>
    <polygon points="1116.3 340.6 1125.5 348.6 1116.3 356.9 1116.3 340.6" fill="#fff"/>
    <polygon points="1125.7 340.6 1134.9 348.6 1125.7 356.9 1125.7 340.6" fill="#fff"/>
  </g>
  <rect x="993.1" y="-1368.7" width="1919.8" height="1080" display="none" fill="#85c6eb"/>
</svg>